# xmcd
#
# Track frame offsets: 
#        150
#        17311
#        35205
#        49801
#        62725
#        79786
#        93265
#        110904
#        123861
#        136805
#        149849
#        167588
#        179947
#
# Disc length: 2600 seconds
#
# Revision: 1
# Processed by: cddbd v1.5.2PL0 Copyright (c) Steve Scherf et al.
# Submitted via: ExactAudioCopy v0.99pb3
#
DISCID=bb0a260d
DTITLE=Al Green - Gets Next To You
DYEAR=1971
DGENRE=Soul
TTITLE0=I Can't Get Next To You
TTITLE1=Are You Lonely For Me Baby
TTITLE2=God Is Standing By
TTITLE3=Tired Of Being Alone
TTITLE4=I'm A Ram
TTITLE5=Driving Wheel
TTITLE6=Light My Fire
TTITLE7=You Say It
TTITLE8=Right Now, Right Now
TTITLE9=All Because
TTITLE10=Ride, Sally Ride
TTITLE11=True Love
TTITLE12=I'll Be Standing By
EXTD=
EXTT0=
EXTT1=
EXTT2=
EXTT3=
EXTT4=
EXTT5=
EXTT6=
EXTT7=
EXTT8=
EXTT9=
EXTT10=
EXTT11=
EXTT12=
PLAYORDER=
